<svg xmlns="http://www.w3.org/2000/svg" viewBox="0 0 75 75">
  <path d="M19.715,51.47h.23a.344.344,0,0,0,.325-.222,17.2,17.2,0,0,1,1.7-3.151,19.359,19.359,0,0,1,7.5-6.628,18.552,18.552,0,0,1,7.708-1.842.317.317,0,0,1,.332.3c0,.006,0,.011,0,.017v6.478a.32.32,0,0,0,.322.32.33.33,0,0,0,.17-.05L55.143,35.4a.321.321,0,0,0,0-.532L38,23.584a.315.315,0,0,0-.492.27v6.557a.315.315,0,0,1-.3.318c-5.684.3-9.772,1.969-12.971,5.2-4.842,4.89-4.509,11.042-4.509,12.6C19.723,49.343,19.715,50.534,19.715,51.47Z"/>
</svg>
