<svg xmlns="http://www.w3.org/2000/svg" viewBox="0 0 280 280">
  <path d="M140,43.5A96.5,96.5,0,1,0,236.5,140,96.5,96.5,0,0,0,140,43.5ZM128.926,83.51q3.408-3.264,9.651-3.265,6.384,0,9.8,3.265t3.411,9.508q0,6.242-3.483,9.651t-9.725,3.41q-6.242,0-9.651-3.41t-3.411-9.651Q125.515,86.778,128.926,83.51Zm32.293,109.8H119.854V181.841l7.4-1.016a2.639,2.639,0,0,0,1.887-.726,3.846,3.846,0,0,0,.436-2.176V135.252q0-2.466-1.887-3.048l-7.838-2.757,1.6-11.756H151.5v60.232a4.453,4.453,0,0,0,.362,2.249q.362.51,1.959.653l7.4,1.016Z"/>
</svg>
