<svg xmlns="http://www.w3.org/2000/svg" viewBox="0 0 280 280" width="25" height="25">
  <path d="M237.822,163.4l.01-.091a96.636,96.636,0,0,0,2.876-23.4c0-1.093-.04-2.177-.076-3.262l.013-.127-.018-.084a95.993,95.993,0,0,0-7.1-33.052l-.028-.129-.077-.122A96.533,96.533,0,0,0,117.948,47.092l.025-.184-.843.422A96.457,96.457,0,1,0,229.407,185.194l.01.023.058-.152a95.707,95.707,0,0,0,8.3-21.551Zm-26.9,36.14a89.578,89.578,0,0,1-62.755,29.725l2.485-4.07,11.679-10.706,9.732-29.877-14.159-8.338-9.685-20.664-12.652-8.759-19.464,4.866-19.951-4.866L82.042,162.418l7.3,18.492,21.654,3.7-.365,21,10.583,10.34,6.377,11.834a89.421,89.421,0,0,1-64.847-124.69l13.387-4.25,16.06-15.258,21.682-6.424,3.037-22.4a89.258,89.258,0,0,1,76.828,10.655L180.216,84.2l-11.679,7.482-21.411-3.589L136.22,99.768l-7.585,11.192L115.983,116.8l-7.549,5.662,4.843,10.244,15.845-2.281,29.135,2.19,9.307,7.753,1.946,17.794,16.058,11.678,12.275-11.192,5.243-5.839L220.117,164l5.613,12.806A89.244,89.244,0,0,1,210.924,199.536Z"/>
</svg>
