<svg xmlns="http://www.w3.org/2000/svg" viewBox="0 0 280 280">
  <g>
    <path d="M140,40A100,100,0,1,0,240,140,100.112,100.112,0,0,0,140,40Zm0,193a93,93,0,1,1,93-93A93.1,93.1,0,0,1,140,233Z"/>
    <path d="M138.577,106.079q6.238,0,9.725-3.41t3.483-9.652q0-6.238-3.411-9.507t-9.8-3.265q-6.242,0-9.651,3.265t-3.411,9.507q0,6.243,3.411,9.652T138.577,106.079Z"/>
    <path d="M151.857,180.171a4.439,4.439,0,0,1-.362-2.249V117.691H121.451l-1.6,11.756,7.838,2.757q1.884.582,1.887,3.047v42.671a3.848,3.848,0,0,1-.436,2.177,2.646,2.646,0,0,1-1.887.726l-7.4,1.016v11.466h41.365V181.841l-7.4-1.016Q152.217,180.681,151.857,180.171Z"/>
  </g>
</svg>
