<svg xmlns="http://www.w3.org/2000/svg" viewBox="0 0 75 75">
  <g>
    <path d="M36.351,30.806a3.11,3.11,0,0,0,2.27-.8,3.011,3.011,0,0,0,.813-2.253,2.933,2.933,0,0,0-.8-2.219,3.181,3.181,0,0,0-2.287-.762,3.125,3.125,0,0,0-2.252.762,2.93,2.93,0,0,0-.8,2.219,2.771,2.771,0,0,0,3.049,3.048Z"/>
    <path d="M39.451,48.1a1.033,1.033,0,0,1-.085-.525V33.516H32.354l-.373,2.744,1.83.644a.649.649,0,0,1,.44.711v9.959a.9.9,0,0,1-.1.508.615.615,0,0,1-.44.17l-1.728.237v2.676h9.654V48.489l-1.727-.237Q39.534,48.218,39.451,48.1Z"/>
  </g>
  <path d="M36.809,62.216A24.245,24.245,0,1,1,61.053,37.971,24.272,24.272,0,0,1,36.809,62.216Zm0-43.49A19.245,19.245,0,1,0,56.053,37.971,19.266,19.266,0,0,0,36.809,18.726Z"/>
</svg>
