<svg xmlns="http://www.w3.org/2000/svg" viewBox="0 0 75 75">
  <path d="M37.5,61.353A23.445,23.445,0,1,1,54.972,53.54,23.472,23.472,0,0,1,37.5,61.353Zm0-42.887a19.445,19.445,0,1,0,14.492,6.481A19.474,19.474,0,0,0,37.5,18.466Z"/>
  <polygon points="56.434 47.984 54.366 43.267 50.579 40.779 49.414 42.077 46.685 44.565 43.114 41.969 42.682 38.013 40.613 36.289 34.135 35.802 30.612 36.309 29.535 34.032 31.214 32.773 34.027 31.474 35.713 28.986 38.138 26.39 42.898 27.187 45.495 25.524 49.414 20.079 53.482 23.613 57.341 29.76 58.93 37.156 58.302 43.133 56.434 47.984"/>
  <polygon points="34.724 59.172 32.377 54.816 30.024 52.517 30.105 47.849 25.29 47.027 23.668 42.915 26.805 39.453 31.241 40.535 35.568 39.453 38.381 41.401 40.535 45.995 43.682 47.849 41.519 54.492 38.922 56.872 37.518 59.172 34.724 59.172"/>
  <polygon points="31.656 17.234 30.744 23.959 25.924 25.387 22.353 28.78 17.48 29.923 21.387 23.94 25.431 20.346 31.656 17.234"/>
</svg>
